<?xml version="1.0" encoding="UTF-8"?>
<svg id="Ebene_1" data-name="Ebene 1" xmlns="http://www.w3.org/2000/svg" viewBox="0 0 398 82.8">
  <defs>
    <style>
      .cls-1 {
        fill: #4c708e;
      }

      .cls-1, .cls-2, .cls-3, .cls-4 {
        stroke-width: 0px;
      }

      .cls-2 {
        fill: #00335e;
      }

      .cls-3 {
        fill: #575757;
      }

      .cls-4 {
        fill: #19355a;
      }
    </style>
  </defs>
  <g>
    <path class="cls-4" d="M110.6,24h4.2v14.4h.1c.7-1.2,1.7-2.2,3-3,1.2-.7,2.7-1.2,4.3-1.2,3.1,0,8.1,1.9,8.1,9.9v13.7h-4.3v-13.1c0-3.7-1.4-6.9-5.3-6.9-2.7,0-4.9,1.9-5.6,4.2-.2.6-.3,1.2-.3,2v13.9h-4.2V24Z"/>
    <path class="cls-4" d="M138.1,34.8l4.5,13c.8,2.1,1.4,4,1.9,5.9h.1c.5-1.9,1.2-3.8,2-5.9l4.5-13h4.4l-9.1,23.1h-4l-8.8-23.1s4.5,0,4.5,0Z"/>
    <path class="cls-4" d="M158.5,53.6c1.2.8,3.4,1.7,5.5,1.7,3.1,0,4.5-1.5,4.5-3.4,0-2-1.2-3.1-4.3-4.2-4.2-1.5-6.1-3.8-6.1-6.5,0-3.7,3-6.8,8-6.8,2.3,0,4.4.7,5.7,1.4l-1.1,3.1c-.9-.6-2.6-1.3-4.7-1.3-2.5,0-3.9,1.4-3.9,3.2,0,1.9,1.4,2.8,4.4,3.9,4,1.5,6.1,3.5,6.1,7,0,4.1-3.2,6.9-8.6,6.9-2.5,0-4.9-.6-6.5-1.6l1-3.4Z"/>
    <path class="cls-3" d="M208.1,57c-1.8,1.1-3.9,1.6-6.3,1.6-3.2,0-5.9-1.1-7.9-3.3s-3-5.1-3-8.8,1.1-6.9,3.4-9.3c2.2-2.4,5.1-3.6,8.6-3.6,1.8,0,3.6.4,5.3,1.1v2.4c-1.7-1.1-3.6-1.6-5.6-1.6-2.8,0-5.1,1-6.8,3s-2.6,4.6-2.6,7.8.8,5.6,2.4,7.5,3.7,2.8,6.3,2.8c2.4,0,4.5-.6,6.2-1.9v2.3h0Z"/>
    <path class="cls-3" d="M223.5,58.6c-3.5,0-6.2-1.1-8.3-3.4-2-2.3-3-5.3-3-8.9,0-4,1.1-7.1,3.2-9.3,2.1-2.2,4.9-3.4,8.4-3.4s6.1,1.1,8.1,3.3,3,5.3,3,9.2-1,6.7-3,9-4.9,3.5-8.4,3.5ZM223.6,35.6c-2.8,0-5.1.9-6.7,2.8-1.7,1.9-2.5,4.5-2.5,7.9,0,3.1.8,5.6,2.4,7.5s3.9,2.8,6.7,2.8,5.1-.9,6.6-2.8,2.3-4.5,2.3-7.8-.8-6-2.3-7.8c-1.5-1.7-3.7-2.6-6.5-2.6Z"/>
    <path class="cls-3" d="M256.9,58.1v-13.9c0-5.7-2.1-8.6-6.2-8.6-2.3,0-4.2.8-5.7,2.5s-2.2,3.8-2.2,6.3v13.7h-2.1v-23.9h2.1v4.3h.1c1.7-3.3,4.5-4.9,8.2-4.9,2.6,0,4.6.9,5.9,2.6,1.4,1.7,2.1,4.2,2.1,7.4v14.5h-2.2Z"/>
    <path class="cls-3" d="M265,57v-2.6c.8.7,1.8,1.3,2.9,1.7s2.1.6,3,.6c3.7,0,5.6-1.5,5.6-4.6,0-1.1-.4-2-1.2-2.7-.8-.7-2.2-1.5-4-2.3-2.3-1-3.9-2-4.8-3.1s-1.4-2.4-1.4-3.9c0-1.9.7-3.5,2.2-4.7s3.3-1.8,5.5-1.8c2,0,3.8.4,5.3,1.3v2.4c-1.8-1.1-3.6-1.7-5.5-1.7-1.6,0-2.8.4-3.8,1.2s-1.4,1.9-1.4,3.2c0,1.1.3,2.1.9,2.8s1.9,1.5,4,2.4c2.5,1.1,4.2,2.2,5.1,3.1.9,1,1.4,2.2,1.4,3.8,0,1.9-.7,3.5-2.1,4.7s-3.4,1.9-5.9,1.9c-2.4-.1-4.3-.6-5.8-1.7Z"/>
    <path class="cls-3" d="M300.5,58.1v-4.3h-.1c-1.7,3.3-4.2,4.9-7.7,4.9-5.6,0-8.5-3.5-8.5-10.6v-13.9h2.2v13.3c0,3.2.5,5.6,1.6,7s2.7,2.2,5,2.2,4-.8,5.4-2.4c1.4-1.6,2.1-3.8,2.1-6.5v-13.6h2.1v23.9h-2.1Z"/>
    <path class="cls-3" d="M310.3,58.1V22.7h2.1v35.3h-2.1v.1Z"/>
    <path class="cls-3" d="M329.5,57.7c-1.1.5-2.2.8-3.1.8-3.5,0-5.3-2.1-5.3-6.3v-16h-4.3v-2h4.3v-6.2c.3-.1.7-.2,1.1-.4.4-.1.7-.2,1.1-.3v6.9h6.3v2h-6.3v15.8c0,1.6.3,2.8.8,3.6.5.7,1.4,1.1,2.6,1.1.9,0,1.8-.3,2.9-.9v1.9h-.1Z"/>
    <path class="cls-3" d="M335.3,28.2c-.5,0-.9-.2-1.2-.5-.4-.3-.5-.8-.5-1.3s.2-.9.5-1.2c.4-.3.8-.5,1.2-.5.5,0,.9.2,1.3.5s.5.7.5,1.3c0,.5-.2.9-.5,1.3-.4.2-.8.4-1.3.4ZM334.2,58.1v-23.9h2.1v23.9h-2.1Z"/>
    <path class="cls-3" d="M360.2,58.1v-13.9c0-5.7-2.1-8.6-6.2-8.6-2.3,0-4.2.8-5.7,2.5s-2.2,3.8-2.2,6.3v13.7h-2.1v-23.9h2.1v4.3h.1c1.7-3.3,4.5-4.9,8.2-4.9,2.6,0,4.6.9,5.9,2.6,1.4,1.7,2.1,4.2,2.1,7.4v14.5h-2.2Z"/>
    <path class="cls-3" d="M386.6,56.3c0,4.5-1,7.8-2.9,9.9s-5,3.1-9.1,3.1c-2.3,0-4.7-.6-7.1-1.8v-2.2c2.5,1.4,4.9,2.1,7.2,2.1,6.6,0,9.9-3.5,9.9-10.4v-3.1h-.1c-1.9,3.2-4.7,4.9-8.6,4.9-2.9,0-5.3-1.1-7.2-3.2-1.9-2.1-2.8-5.1-2.8-8.9s1-6.9,3-9.3c2-2.4,4.6-3.6,7.9-3.6,3.5,0,6.1,1.5,7.6,4.4h.1v-3.8h2.1v21.9ZM384.5,43.3c0-2.1-.7-3.9-2.1-5.5-1.4-1.5-3.3-2.3-5.6-2.3-2.6,0-4.7,1-6.3,3-1.6,2-2.4,4.6-2.4,7.8s.7,5.8,2.2,7.6,3.4,2.7,5.8,2.7c2.6,0,4.6-.8,6.1-2.5s2.3-3.7,2.3-6.1v-4.7Z"/>
  </g>
  <g>
    <path class="cls-3" d="M26.1,10.7C10.7,21.9,6,43.2,15.8,60.1c2.7,4.7,6.2,8.5,10.3,11.5l17.6-30.6L26.1,10.7Z"/>
    <path class="cls-2" d="M85.9,36.8c-.6-5-2.2-10-4.9-14.6C71.3,5.4,50.5-1.1,33.1,6.6l17.5,30.2h35.3Z"/>
    <path class="cls-1" d="M33.1,75.6c10.7,4.7,23.4,4.5,34.2-1.8,10.9-6.4,17.5-17.3,18.7-28.9h-35.1l-17.8,30.7Z"/>
  </g>
</svg>